<svg width="55" height="55" viewBox="0 0 55 55" fill="none" xmlns="http://www.w3.org/2000/svg">
<path fill-rule="evenodd" clip-rule="evenodd" d="M41.0813 33.8171C41.041 33.8017 41.0001 33.7872 40.9586 33.7737C40.6671 33.6788 40.3708 33.6404 40.0815 33.6524V30.0002H42.0815V34.5216C41.907 34.318 41.6983 34.141 41.4606 34.0002C41.3413 33.9296 41.2146 33.8682 41.0813 33.8171Z" fill="white"/>
<path fill-rule="evenodd" clip-rule="evenodd" d="M17.1445 43.6445L17.1645 43.6392L19.0777 43.132L20.3413 47.8976C19.9914 47.9986 19.6673 48.1751 19.3928 48.4132C19.1004 48.6669 18.8643 48.9905 18.7132 49.3675L17.1445 43.6445Z" fill="white"/>
<path d="M41.0813 7C37.2153 7 34.0813 10.134 34.0813 14C34.0813 17.866 37.2153 21 41.0813 21C44.9473 21 48.0813 17.866 48.0813 14C48.0813 10.134 44.9473 7 41.0813 7ZM41.0813 7C42.7382 7 44.0813 5.65685 44.0813 4C44.0813 2.34315 42.7382 1 41.0813 1M41.0813 1C33.9016 1 28.0813 6.8203 28.0813 14C28.0813 19.2897 31.2406 23.8415 35.7753 25.8714C35.9595 25.9538 36.0813 26.1351 36.0813 26.3369V28C36.0813 29.1046 36.9767 30 38.0813 30H44.0813C45.1859 30 46.0813 29.1046 46.0813 28V26.3369C46.0813 26.1351 46.2031 25.9538 46.3873 25.8714C50.922 23.8415 54.0813 19.2897 54.0813 14C54.0813 6.8203 48.261 1 41.0813 1ZM36.9263 40.0446C37.1978 40.6919 37.7387 41.2217 38.4586 41.456C38.6148 41.5068 38.7724 41.5414 38.9295 41.5608M36.9263 40.0446C36.7026 39.5112 36.6619 38.8982 36.8549 38.3051L37.8077 35.3773C38.1401 34.3559 39.0678 33.6945 40.0815 33.6524M36.9263 40.0446C36.1284 39.9478 35.2984 40.2367 34.7328 40.89L32.7176 43.2178C31.9638 44.0886 31.9178 45.3316 32.5292 46.2445M38.9295 41.5608C40.0933 41.704 41.2331 41.0091 41.6095 39.8523L42.5623 36.9246C42.9313 35.7905 42.4459 34.5834 41.4606 34.0002M38.9295 41.5608C39.2837 42.4087 39.1553 43.4208 38.513 44.1626L36.4978 46.4904C35.6758 47.44 34.2951 47.6198 33.2666 46.9643M25.9457 49.5187C25.9065 49.9645 25.9865 50.4263 26.2018 50.8557C26.2853 51.0223 26.3849 51.1755 26.4978 51.3144M25.9457 49.5187C26.0191 48.6831 26.5113 47.9039 27.3161 47.5004L30.0684 46.1204C30.8822 45.7124 31.8125 45.7903 32.5292 46.2445M25.9457 49.5187C25.6253 49.1245 25.1821 48.824 24.6539 48.6824L21.68 47.8856C21.2241 47.7634 20.7639 47.7755 20.3413 47.8976M26.4978 51.3144C27.2213 52.2043 28.4895 52.5053 29.5571 51.97L32.3094 50.5901C33.5437 49.9713 34.0426 48.469 33.4238 47.2348C33.3764 47.1402 33.3238 47.05 33.2666 46.9643M26.4978 51.3144C26.4852 51.4572 26.4601 51.601 26.4217 51.7443C26.0643 53.078 24.6935 53.8694 23.3598 53.5121L20.3859 52.7152C19.0522 52.3578 18.2607 50.987 18.6181 49.6533C18.7522 49.153 19.0289 48.7289 19.3928 48.4132M32.5292 46.2445C32.6508 46.4259 32.7983 46.5944 32.9714 46.7442C33.0657 46.8259 33.1644 46.8992 33.2666 46.9643M12.1915 21.1604C8.45723 22.161 6.24115 25.9994 7.24175 29.7336C8.24234 33.4679 12.0807 35.684 15.815 34.6834C19.5492 33.6828 21.7653 29.8444 20.7647 26.1101C19.7641 22.3759 15.9258 20.1598 12.1915 21.1604ZM12.1915 21.1604C13.7919 20.7316 14.7416 19.0866 14.3128 17.4862C13.884 15.8858 12.239 14.936 10.6386 15.3648M10.6386 15.3648C3.70352 17.2231 -0.412053 24.3515 1.44619 31.2865C2.81527 36.396 7.04504 39.975 11.9506 40.7621C12.1498 40.794 12.3144 40.9376 12.3666 41.1325L12.7971 42.7389C13.0829 43.8059 14.1796 44.439 15.2466 44.1531L17.1645 43.6392M10.6386 15.3648C17.5736 13.5066 24.702 17.6222 26.5603 24.5572C27.9293 29.6667 26.0558 34.8811 22.201 38.0155C22.0444 38.1428 21.9737 38.3494 22.0259 38.5443L22.4563 40.1507C22.7422 41.2177 22.109 42.3144 21.0421 42.6002L17.1645 43.6392M41.4606 34.0002C41.3413 33.9296 41.2146 33.8682 41.0813 33.8171C41.041 33.8017 41.0001 33.7872 40.9586 33.7737C40.6671 33.6788 40.3708 33.6404 40.0815 33.6524M41.4606 34.0002C41.6983 34.141 41.907 34.318 42.0815 34.5216V30.0002H40.0815V33.6524M20.3413 47.8976C19.9914 47.9986 19.6673 48.1751 19.3928 48.4132M20.3413 47.8976L19.0777 43.132L17.1645 43.6392M19.3928 48.4132C19.1004 48.6669 18.8643 48.9905 18.7132 49.3675L17.1445 43.6445L17.1645 43.6392M18.0815 40.0002C18.0815 40.5525 17.6338 41.0002 17.0815 41.0002C16.5293 41.0002 16.0815 40.5525 16.0815 40.0002C16.0815 39.448 16.5293 39.0002 17.0815 39.0002C17.6338 39.0002 18.0815 39.448 18.0815 40.0002ZM42.0815 26.0002C42.0815 26.5525 41.6338 27.0002 41.0815 27.0002C40.5293 27.0002 40.0815 26.5525 40.0815 26.0002C40.0815 25.448 40.5293 25.0002 41.0815 25.0002C41.6338 25.0002 42.0815 25.448 42.0815 26.0002Z" stroke="#B20237"/>
</svg>
