<svg width="68" height="68" viewBox="0 0 68 68" fill="none" xmlns="http://www.w3.org/2000/svg">
<circle cx="34" cy="34" r="34" fill="#0263B2"/>
<path fill-rule="evenodd" clip-rule="evenodd" d="M31.2975 21.9552C31.2975 21.5426 31.626 21.2082 32.0312 21.2082H39.3841H40.9183H46.2229H47.713H50.6193C51.0245 21.2082 51.353 21.5426 51.353 21.9552C51.353 22.3677 51.0245 22.7021 50.6193 22.7021H47.9717H46.4816H41.4524H39.9182H32.0312C31.626 22.7021 31.2975 22.3677 31.2975 21.9552Z" fill="white"/>
<path fill-rule="evenodd" clip-rule="evenodd" d="M31.2975 26.4368C31.2975 26.0243 31.626 25.6899 32.0312 25.6899H40.9864H42.5206H46.9991H48.4892H50.6193C51.0245 25.6899 51.353 26.0243 51.353 26.4368C51.353 26.8494 51.0245 27.1838 50.6193 27.1838H48.748H47.2579H43.0548H41.5205H32.0312C31.626 27.1838 31.2975 26.8494 31.2975 26.4368Z" fill="white"/>
<path fill-rule="evenodd" clip-rule="evenodd" d="M31.2975 30.9185C31.2975 30.506 31.626 30.1715 32.0312 30.1715H42.5888H44.123H47.7754H49.2655H50.6193C51.0245 30.1715 51.353 30.506 51.353 30.9185C51.353 31.331 51.0245 31.6654 50.6193 31.6654H49.5243H48.0342H44.6571H43.1229H32.0312C31.626 31.6654 31.2975 31.331 31.2975 30.9185Z" fill="white"/>
<path fill-rule="evenodd" clip-rule="evenodd" d="M31.2975 35.4001C31.2975 34.9876 31.626 34.6532 32.0312 34.6532H44.1911H45.7254H48.5517H50.0418H50.6193C51.0245 34.6532 51.353 34.9876 51.353 35.4001C51.353 35.8127 51.0245 36.1471 50.6193 36.1471H50.3005H48.8104H46.2595H44.7252H32.0312C31.626 36.1471 31.2975 35.8127 31.2975 35.4001Z" fill="white"/>
<path fill-rule="evenodd" clip-rule="evenodd" d="M31.2975 39.8818C31.2975 39.4693 31.626 39.1349 32.0312 39.1349H45.7935H47.3277H49.3279H50.6193C50.69 39.1349 50.7584 39.1451 50.8231 39.1641C51.1292 39.254 51.353 39.5413 51.353 39.8818C51.353 40.1296 51.2344 40.3493 51.0519 40.4851C50.9306 40.5754 50.781 40.6287 50.6193 40.6287H49.5867H47.8618H46.3276H32.0312C31.626 40.6287 31.2975 40.2943 31.2975 39.8818Z" fill="white"/>
<path fill-rule="evenodd" clip-rule="evenodd" d="M27.1396 11.9959C27.1396 11.4459 27.5776 11 28.1179 11H49.3012C49.546 11 49.7819 11.0934 49.9623 11.2618L55.6828 16.5999C55.8849 16.7885 56 17.0549 56 17.3341V47.3512C56 47.9013 55.562 48.3472 55.0217 48.3472H28.1179C27.5776 48.3472 27.1396 47.9013 27.1396 47.3512V33.9063C27.1396 33.4937 27.4681 33.1593 27.8734 33.1593C28.2786 33.1593 28.6071 33.4937 28.6071 33.9063V46.8533H42.1459H44.512H48.7273H50.5968H54.5325V17.5531L49.1109 12.4939H28.6071V16.1659V17.6828V17.6927V19.2546V29.9226C28.6071 30.3351 28.2786 30.6695 27.8734 30.6695C27.4681 30.6695 27.1396 30.3351 27.1396 29.9226V19.7983V18.2365V11.9959Z" fill="white"/>
<path fill-rule="evenodd" clip-rule="evenodd" d="M47.6843 11H49.3012C49.546 11 49.7819 11.0934 49.9623 11.2618L55.6828 16.5999C55.8849 16.7885 56 17.0549 56 17.3341V18.9674H48.6626C48.1223 18.9674 47.6843 18.5215 47.6843 17.9715V11ZM49.1518 12.532V17.4735H54.4472L49.1518 12.532Z" fill="white"/>
<path fill-rule="evenodd" clip-rule="evenodd" d="M12.0593 24.8839C11.8745 24.367 12.1363 23.7955 12.644 23.6074L19.8505 20.9372L19.483 18.815C19.3891 18.2733 19.7444 17.7568 20.2765 17.6612L28.6071 16.1659V17.6828L21.0131 19.046L21.2508 20.4184L21.505 21.886L26.3216 49.6938L42.1459 46.8533H44.512H48.7273H50.5968L46.9704 47.5042L24.2039 55.9397C23.6962 56.1278 23.1348 55.8613 22.95 55.3444L17.8952 41.2065C17.759 40.8257 17.9519 40.4046 18.326 40.2659C18.7001 40.1273 19.1138 40.3237 19.2499 40.7045L24.1463 54.3992L38.7941 48.9719L26.0947 51.2514C25.5626 51.3469 25.0552 50.9852 24.9613 50.4436L20.1048 22.4049L13.5725 24.8252L18.0775 37.4252C18.2136 37.806 18.0207 38.2271 17.6466 38.3657C17.2725 38.5044 16.8589 38.308 16.7227 37.9272L12.0593 24.8839ZM39.3841 21.2082L39.9182 22.7021H41.4524L40.9183 21.2082H39.3841ZM28.6071 17.6927V19.2546L27.1396 19.7983V18.2365L28.6071 17.6927ZM40.9864 25.6899H42.5206L43.0548 27.1838H41.5205L40.9864 25.6899ZM42.5888 30.1715L43.1229 31.6654H44.6571L44.123 30.1715H42.5888ZM44.7252 36.1471L44.1911 34.6532H45.7254L46.2595 36.1471H44.7252ZM45.7935 39.1349L46.3276 40.6287H47.8618L47.3277 39.1349H45.7935ZM50.8231 39.1641L51.0519 40.4851C50.9306 40.5754 50.781 40.6287 50.6193 40.6287H49.5867L49.3279 39.1349H50.6193C50.69 39.1349 50.7584 39.1451 50.8231 39.1641ZM48.8104 36.1471H50.3005L50.0418 34.6532H48.5517L48.8104 36.1471ZM49.2655 30.1715L49.5243 31.6654H48.0342L47.7754 30.1715H49.2655ZM47.2579 27.1838H48.748L48.4892 25.6899H46.9991L47.2579 27.1838ZM47.713 21.2082L47.9717 22.7021H46.4816L46.2229 21.2082H47.713Z" fill="white"/>
</svg>
