<svg width="89" height="110" viewBox="0 0 89 110" fill="none" xmlns="http://www.w3.org/2000/svg">
<path d="M25 35C22.3546 39.6061 22.3333 44.5 22 47.5C21.3333 47.1667 19.4 44.8 17 42C14.6 39.2 11.5 39 8 42C7.33333 39 7.64 28.3638 11.5 21C17.2335 10.0622 25.4798 5.83275 37.5 3.00002C53.5031 -0.771332 67.429 1.90728 78 14.5C87.4324 25.7365 82.5 51 84.5 51.5C86.5 52 89 56.5 87.5 62C86.2033 66.7546 82.3333 71.5 80 72.5C79.5 73.8334 79.3242 78.4475 78 82C74.5264 91.3186 69.3923 96.0471 60.5 100.5C51.7076 104.903 38.5 103 35.5 103.5C32.341 104.027 29 108.5 29 108.5C26.3333 108.333 19.3036 107.978 13.5 106C8.292 104.225 2.66667 101 1 99.5C3.16666 93.1667 12.4123 85.6142 14.5 72.5C15.4466 66.5537 14 55.5 9.5 49C8.4753 47.5199 11.269 46.5054 13 47C19.4949 48.8557 21.1114 58.4595 22.2428 65.4273C22.3611 66.1556 23.1995 66.508 23.8062 66.0879C26.6892 64.0916 33.7567 59.2911 39 56.5C43.4533 54.1294 49.9317 51.4298 53.4667 50.0046C54.8877 49.4316 56.4952 50.0895 57.1292 51.4843C57.8544 53.0797 57.0089 54.9541 55.3508 55.5215C53.1173 56.2859 50.1473 57.3872 48 58.5C45.131 59.9868 41.3848 62.71 39.7823 63.9079C39.3242 64.2504 39.1844 64.8689 39.4402 65.3805C39.7453 65.9905 40.498 66.2238 41.0974 65.8984C43.1527 64.7828 47.6748 62.3813 51 61C54.0371 59.7384 58.349 58.3837 60.8922 57.6191C62.1142 57.2517 63.413 57.8259 63.9836 58.9673C64.7549 60.5099 63.8785 62.3745 62.2085 62.8056C59.6424 63.468 56.0914 64.4634 53.5 65.5C50.0598 66.8761 45.4995 69.4493 43.2983 70.732C42.5759 71.153 42.3477 72.0796 42.7779 72.7965C43.1856 73.476 44.0445 73.7299 44.7572 73.3837C46.8864 72.3493 51.284 70.2544 54.5 69C57.1163 67.9796 60.7651 66.8077 63.0005 66.1119C64.1432 65.7562 65.3639 66.3187 65.85 67.4124C66.4504 68.7633 65.6902 70.3353 64.2701 70.7459C62.0031 71.4013 58.7904 72.4172 56.5 73.5C53.6272 74.8581 49.9332 77.3958 48.1139 78.6924C47.4769 79.1463 47.3064 80.0106 47.7088 80.6814C48.1446 81.4076 49.0895 81.6407 49.821 81.214C51.3704 80.31 53.9831 78.8427 56 78C57.836 77.2329 60.3962 76.4746 62.1216 75.9978C63.1901 75.7026 64.2937 76.2832 64.6829 77.3212C65.1255 78.5013 64.4858 79.8145 63.2936 80.2234C59.6411 81.4763 52.314 84.2318 48 87.5C43.5978 90.835 37.5 99.5 37.5 99.5C37.5 99.5 43.4722 99.7323 46 99.5C56.2614 98.5573 63.0606 95.5448 69.5 87.5C74.3271 81.4694 75.5 69 76.5 69C77.5 69 78.5 70.5 82 65.5C85.6719 60.2544 85 55.5 82 54.5C79.9042 53.8015 78 55.5 78 58.5C78 60.0251 78 62 75.5 62C73 62 73.5 60 73.5 55C73.5 50 70.2832 44.8602 66 41C59.2276 34.8965 52.2395 39.4566 43.5 38C37.5 37 31.5 31.5 30.5 28.5C30.5 28.5 26.4587 32.4602 25 35Z" fill="white" stroke="#B20237" stroke-width="1.5"/>
</svg>
