<svg width="68" height="68" viewBox="0 0 68 68" fill="none" xmlns="http://www.w3.org/2000/svg">
<circle cx="34" cy="34" r="34" fill="#0263B2"/>
<path fill-rule="evenodd" clip-rule="evenodd" d="M12 16.7048C12 14.6587 13.6605 13 15.7088 13H20.4066C20.8163 13 21.1484 13.3317 21.1484 13.741C21.1484 14.1502 20.8163 14.4819 20.4066 14.4819H15.7088C14.4798 14.4819 13.4835 15.4771 13.4835 16.7048V50.2952C13.4835 51.5228 14.4798 52.5181 15.7088 52.5181H43.1538C43.5635 52.5181 43.8956 52.8498 43.8956 53.259C43.8956 53.6683 43.5635 54 43.1538 54H15.7088C13.6605 54 12 52.3413 12 50.2952V16.7048ZM53.2912 14.4819H23.3736C22.964 14.4819 22.6319 14.1502 22.6319 13.741C22.6319 13.3317 22.964 13 23.3736 13H53.2912C55.3395 13 57 14.6587 57 16.7048V50.2952C57 52.3413 55.3395 54 53.2912 54H46.1209C45.7112 54 45.3791 53.6683 45.3791 53.259C45.3791 52.8498 45.7112 52.5181 46.1209 52.5181H53.2912C54.5202 52.5181 55.5165 51.5228 55.5165 50.2952V16.7048C55.5165 15.4772 54.5202 14.4819 53.2912 14.4819Z" fill="white"/>
<path fill-rule="evenodd" clip-rule="evenodd" d="M56.2582 20.4096H12.7418V18.9277H56.2582V20.4096Z" fill="white"/>
<path fill-rule="evenodd" clip-rule="evenodd" d="M32.522 35.2289L18.6758 35.2289V33.747L32.522 33.747V35.2289Z" fill="white"/>
<path fill-rule="evenodd" clip-rule="evenodd" d="M50.3242 35.2289L36.478 35.2289V33.747L50.3242 33.747V35.2289Z" fill="white"/>
<path fill-rule="evenodd" clip-rule="evenodd" d="M21.8901 37.4518C21.8901 37.0426 22.2222 36.7108 22.6319 36.7108H28.5659C28.9756 36.7108 29.3077 37.0426 29.3077 37.4518C29.3077 37.861 28.9756 38.1928 28.5659 38.1928H22.6319C22.2222 38.1928 21.8901 37.861 21.8901 37.4518Z" fill="white"/>
<path fill-rule="evenodd" clip-rule="evenodd" d="M39.6923 37.4518C39.6923 37.0426 40.0244 36.7108 40.4341 36.7108H46.3681C46.7778 36.7108 47.1099 37.0426 47.1099 37.4518C47.1099 37.861 46.7778 38.1928 46.3681 38.1928H40.4341C40.0244 38.1928 39.6923 37.861 39.6923 37.4518Z" fill="white"/>
<path fill-rule="evenodd" clip-rule="evenodd" d="M21.8901 39.9217C21.8901 39.5125 22.2222 39.1807 22.6319 39.1807H28.5659C28.9756 39.1807 29.3077 39.5125 29.3077 39.9217C29.3077 40.3309 28.9756 40.6627 28.5659 40.6627H22.6319C22.2222 40.6627 21.8901 40.3309 21.8901 39.9217Z" fill="white"/>
<path fill-rule="evenodd" clip-rule="evenodd" d="M39.6923 39.9217C39.6923 39.5125 40.0244 39.1807 40.4341 39.1807H46.3681C46.7778 39.1807 47.1099 39.5125 47.1099 39.9217C47.1099 40.3309 46.7778 40.6627 46.3681 40.6627H40.4341C40.0244 40.6627 39.6923 40.3309 39.6923 39.9217Z" fill="white"/>
<path fill-rule="evenodd" clip-rule="evenodd" d="M21.8901 42.3916C21.8901 41.9823 22.2222 41.6506 22.6319 41.6506H28.5659C28.9756 41.6506 29.3077 41.9823 29.3077 42.3916C29.3077 42.8008 28.9756 43.1325 28.5659 43.1325H22.6319C22.2222 43.1325 21.8901 42.8008 21.8901 42.3916Z" fill="white"/>
<path fill-rule="evenodd" clip-rule="evenodd" d="M39.6923 42.3916C39.6923 41.9823 40.0244 41.6506 40.4341 41.6506H46.3681C46.7778 41.6506 47.1099 41.9823 47.1099 42.3916C47.1099 42.8008 46.7778 43.1325 46.3681 43.1325H40.4341C40.0244 43.1325 39.6923 42.8008 39.6923 42.3916Z" fill="white"/>
<path fill-rule="evenodd" clip-rule="evenodd" d="M14.967 16.7048C14.967 16.2956 15.2991 15.9639 15.7088 15.9639H16.6978C17.1075 15.9639 17.4396 16.2956 17.4396 16.7048C17.4396 17.114 17.1075 17.4458 16.6978 17.4458H15.7088C15.2991 17.4458 14.967 17.114 14.967 16.7048Z" fill="white"/>
<path fill-rule="evenodd" clip-rule="evenodd" d="M17.9341 16.7048C17.9341 16.2956 18.2662 15.9639 18.6758 15.9639H19.6648C20.0745 15.9639 20.4066 16.2956 20.4066 16.7048C20.4066 17.114 20.0745 17.4458 19.6648 17.4458H18.6758C18.2662 17.4458 17.9341 17.114 17.9341 16.7048Z" fill="white"/>
<path fill-rule="evenodd" clip-rule="evenodd" d="M20.9011 16.7048C20.9011 16.2956 21.2332 15.9639 21.6429 15.9639H22.6319C23.0415 15.9639 23.3736 16.2956 23.3736 16.7048C23.3736 17.114 23.0415 17.4458 22.6319 17.4458H21.6429C21.2332 17.4458 20.9011 17.114 20.9011 16.7048Z" fill="white"/>
<path fill-rule="evenodd" clip-rule="evenodd" d="M17.9341 27.5723C17.9341 26.6174 18.709 25.8434 19.6648 25.8434H31.533C32.4888 25.8434 33.2637 26.6174 33.2637 27.5723V44.3675C33.2637 45.3223 32.4888 46.0964 31.533 46.0964H19.6648C18.709 46.0964 17.9341 45.3223 17.9341 44.3675V41.1566C17.9341 40.7474 18.2662 40.4157 18.6758 40.4157C19.0855 40.4157 19.4176 40.7474 19.4176 41.1566V44.3675C19.4176 44.5039 19.5283 44.6145 19.6648 44.6145H31.533C31.6695 44.6145 31.7802 44.5039 31.7802 44.3675V27.5723C31.7802 27.4359 31.6695 27.3253 31.533 27.3253H19.6648C19.5283 27.3253 19.4176 27.4359 19.4176 27.5723V38.1928C19.4176 38.602 19.0855 38.9337 18.6758 38.9337C18.2662 38.9337 17.9341 38.602 17.9341 38.1928V27.5723Z" fill="white"/>
<path fill-rule="evenodd" clip-rule="evenodd" d="M37.467 27.3253C37.3305 27.3253 37.2198 27.4359 37.2198 27.5723V44.3675C37.2198 44.5039 37.3305 44.6145 37.467 44.6145H49.3352C49.4717 44.6145 49.5824 44.5039 49.5824 44.3675V27.5723C49.5824 27.4359 49.4717 27.3253 49.3352 27.3253H43.6484C43.2387 27.3253 42.9066 26.9936 42.9066 26.5843C42.9066 26.1751 43.2387 25.8434 43.6484 25.8434H49.3352C50.291 25.8434 51.0659 26.6174 51.0659 27.5723V44.3675C51.0659 45.3223 50.291 46.0964 49.3352 46.0964H37.467C36.5112 46.0964 35.7363 45.3223 35.7363 44.3675V27.5723C35.7363 26.6174 36.5112 25.8434 37.467 25.8434H40.6813C41.091 25.8434 41.4231 26.1751 41.4231 26.5843C41.4231 26.9936 41.091 27.3253 40.6813 27.3253H37.467Z" fill="white"/>
<path fill-rule="evenodd" clip-rule="evenodd" d="M24.9507 28.8802C25.1753 28.2818 26.0225 28.2818 26.2471 28.8802L27.5455 32.3386C27.6413 32.594 27.5118 32.8788 27.2561 32.9746C27.0003 33.0704 26.7153 32.9409 26.6194 32.6855L26.2628 31.7355H24.9351L24.5784 32.6855C24.4825 32.9409 24.1975 33.0704 23.9418 32.9746C23.686 32.8788 23.5565 32.594 23.6524 32.3386L24.1253 31.0788C24.1278 31.0716 24.1305 31.0644 24.1334 31.0574L24.9507 28.8802ZM25.3059 30.7475H25.8919L25.5989 29.9671L25.3059 30.7475Z" fill="white"/>
<path fill-rule="evenodd" clip-rule="evenodd" d="M42.9066 29.4429V30.2016C43.1104 30.182 43.3205 30.1478 43.5033 30.0918C43.8846 29.975 43.8956 29.856 43.8956 29.8223C43.8956 29.7901 43.8915 29.6924 43.5895 29.5816C43.3925 29.5093 43.1481 29.4662 42.9066 29.4429ZM44.641 30.5186C44.7867 30.3411 44.8846 30.1134 44.8846 29.8223C44.8846 29.1438 44.3454 28.8065 43.9306 28.6543C43.4978 28.4954 42.99 28.4476 42.6264 28.4354C42.2266 28.422 41.9176 28.7462 41.9176 29.1234V32.3141C41.9176 32.6973 42.229 33.0053 42.6096 33.0058C42.6303 33.0059 42.6511 33.0059 42.6718 33.0059C43.3062 33.007 43.9324 33.008 44.3965 32.8772C44.65 32.8057 44.909 32.6819 45.1014 32.4524C45.2995 32.2161 45.3791 31.9255 45.3791 31.6152C45.3791 31.2083 45.1899 30.8959 44.9151 30.6854C44.8297 30.62 44.7372 30.5651 44.641 30.5186ZM42.9066 31.2142V32.0178C43.4644 32.016 43.8586 32.0023 44.1279 31.9264C44.2714 31.8859 44.3236 31.8414 44.3432 31.8181C44.357 31.8016 44.3901 31.7549 44.3901 31.6152C44.3901 31.5507 44.3733 31.5154 44.3133 31.4694C44.2317 31.4069 44.0841 31.344 43.8574 31.2972C43.5634 31.2366 43.2258 31.219 42.9066 31.2142Z" fill="white"/>
</svg>
