<svg width="73" height="75" viewBox="0 0 73 75" fill="none" xmlns="http://www.w3.org/2000/svg">
<path d="M43 7L43.5511 6.49129L43.3284 6.25H43V7ZM55 20H55.75V19.7068L55.5511 19.4913L55 20ZM29.5753 33.9151L29.045 34.4454L29.5753 33.9151ZM25.959 30.2988L26.4893 29.7684L25.959 29.2381L25.4286 29.7684L25.959 30.2988ZM22.9961 27.3359L23.5265 27.8663L24.0568 27.3359L23.5265 26.8056L22.9961 27.3359ZM19.3799 23.7197L19.9102 23.1894L19.3799 23.7197ZM19.3799 30.9522L18.8495 30.4219L19.3799 30.9522ZM25.959 24.3731L25.4286 24.9034L25.959 25.4338L26.4893 24.9034L25.959 24.3731ZM29.5753 20.7568L30.1056 21.2871L29.5753 20.7568ZM32.5381 23.7197L33.0684 24.25L32.5381 23.7197ZM28.9218 27.3359L28.3915 26.8056L27.8612 27.3359L28.3915 27.8663L28.9218 27.3359ZM22.3427 33.9151L21.8124 33.3847L22.3427 33.9151ZM22.3427 20.7569L22.8731 20.2265L22.3427 20.7569ZM19.3799 33.9151L19.9102 33.3847L19.3799 33.9151ZM32.5381 20.7568L32.0078 21.2871L32.5381 20.7568ZM19.3799 20.7569L18.8496 20.2265L19.3799 20.7569ZM12.75 45.5C12.3358 45.5 12 45.8358 12 46.25C12 46.6642 12.3358 47 12.75 47V45.5ZM39.25 47C39.6642 47 40 46.6642 40 46.25C40 45.8358 39.6642 45.5 39.25 45.5V47ZM12.75 51.5C12.3358 51.5 12 51.8358 12 52.25C12 52.6642 12.3358 53 12.75 53V51.5ZM39.25 53C39.6642 53 40 52.6642 40 52.25C40 51.8358 39.6642 51.5 39.25 51.5V53ZM12.75 57.5C12.3358 57.5 12 57.8358 12 58.25C12 58.6642 12.3358 59 12.75 59V57.5ZM30.25 59C30.6642 59 31 58.6642 31 58.25C31 57.8358 30.6642 57.5 30.25 57.5V59ZM70.6034 61.3621L69.8565 61.2942L70.6034 61.3621ZM70 68V68.75H70.6849L70.7469 68.0679L70 68ZM39 68L38.2531 68.0679L38.3151 68.75H39V68ZM38.3966 61.3621L39.1435 61.2942L38.3966 61.3621ZM61.4282 47L60.8814 46.4867V46.4867L61.4282 47ZM59.8785 48.9751L59.2523 48.5625L59.8785 48.9751ZM49.1215 48.9751L48.4952 49.3878L49.1215 48.9751ZM47.5718 47L47.0249 47.5133L47.5718 47ZM55.5 35.25C55.0858 35.25 54.75 35.5858 54.75 36C54.75 36.4142 55.0858 36.75 55.5 36.75V35.25ZM59.25 40.5C59.25 40.9142 59.5858 41.25 60 41.25C60.4142 41.25 60.75 40.9142 60.75 40.5H59.25ZM59 37.6713L59.583 37.1996L59 37.6713ZM1.75 69V10H0.25V69H1.75ZM4 7.75H43V6.25H4V7.75ZM42.25 7V18H43.75V7H42.25ZM45 20.75H55V19.25H45V20.75ZM55.5511 19.4913L43.5511 6.49129L42.4489 7.50871L54.4489 20.5087L55.5511 19.4913ZM10 1.75H57V0.25H10V1.75ZM8.75 7V3H7.25V7H8.75ZM57 1.75C57.6904 1.75 58.25 2.30964 58.25 3H59.75C59.75 1.48122 58.5188 0.25 57 0.25V1.75ZM10 0.25C8.48122 0.25 7.25 1.48122 7.25 3H8.75C8.75 2.30964 9.30964 1.75 10 1.75V0.25ZM39.25 27C39.25 34.3178 33.3178 40.25 26 40.25V41.75C34.1462 41.75 40.75 35.1462 40.75 27H39.25ZM26 40.25C18.6822 40.25 12.75 34.3178 12.75 27H11.25C11.25 35.1462 17.8538 41.75 26 41.75V40.25ZM12.75 27C12.75 19.6822 18.6822 13.75 26 13.75V12.25C17.8538 12.25 11.25 18.8538 11.25 27H12.75ZM26 13.75C33.3178 13.75 39.25 19.6822 39.25 27H40.75C40.75 18.8538 34.1462 12.25 26 12.25V13.75ZM30.1056 33.3848L26.4893 29.7684L25.4286 30.8291L29.045 34.4454L30.1056 33.3848ZM23.5265 26.8056L19.9102 23.1894L18.8496 24.25L22.4658 27.8663L23.5265 26.8056ZM19.9102 31.4825L23.5265 27.8663L22.4658 26.8056L18.8495 30.4219L19.9102 31.4825ZM26.4893 24.9034L30.1056 21.2871L29.0449 20.2265L25.4286 23.8428L26.4893 24.9034ZM32.0078 23.1893L28.3915 26.8056L29.4522 27.8663L33.0684 24.25L32.0078 23.1893ZM25.4286 29.7684L21.8124 33.3847L22.873 34.4454L26.4893 30.8291L25.4286 29.7684ZM21.8124 21.2872L25.4286 24.9034L26.4893 23.8428L22.8731 20.2265L21.8124 21.2872ZM28.3915 27.8663L32.0078 31.4826L33.0685 30.4219L29.4522 26.8056L28.3915 27.8663ZM19.9102 33.3847C19.3849 32.8595 19.3849 32.0078 19.9102 31.4825L18.8495 30.4219C17.7385 31.5329 17.7385 33.3343 18.8495 34.4454L19.9102 33.3847ZM18.8495 34.4454C19.9606 35.5564 21.762 35.5564 22.873 34.4454L21.8124 33.3847C21.2871 33.91 20.4355 33.91 19.9102 33.3847L18.8495 34.4454ZM32.0078 21.2871C32.533 21.8124 32.533 22.6641 32.0078 23.1893L33.0684 24.25C34.1795 23.1389 34.1795 21.3375 33.0684 20.2265L32.0078 21.2871ZM33.0684 20.2265C31.9574 19.1154 30.156 19.1154 29.0449 20.2265L30.1056 21.2871C30.6309 20.7619 31.4825 20.7619 32.0078 21.2871L33.0684 20.2265ZM32.0078 33.3848C31.4825 33.91 30.6309 33.91 30.1056 33.3848L29.045 34.4454C30.156 35.5565 31.9574 35.5565 33.0685 34.4454L32.0078 33.3848ZM33.0685 34.4454C34.1795 33.3344 34.1795 31.533 33.0685 30.4219L32.0078 31.4826C32.5331 32.0079 32.5331 32.8595 32.0078 33.3848L33.0685 34.4454ZM19.9102 21.2872C20.4355 20.7619 21.2871 20.7619 21.8124 21.2872L22.8731 20.2265C21.762 19.1155 19.9606 19.1155 18.8496 20.2265L19.9102 21.2872ZM18.8496 20.2265C17.7385 21.3376 17.7385 23.139 18.8496 24.25L19.9102 23.1894C19.385 22.6641 19.385 21.8125 19.9102 21.2872L18.8496 20.2265ZM12.75 47H39.25V45.5H12.75V47ZM12.75 53H39.25V51.5H12.75V53ZM12.75 59H30.25V57.5H12.75V59ZM69 73.25H40V74.75H69V73.25ZM71.25 71C71.25 72.2426 70.2426 73.25 69 73.25V74.75C71.0711 74.75 72.75 73.0711 72.75 71H71.25ZM69 68.75C70.2426 68.75 71.25 69.7574 71.25 71H72.75C72.75 68.9289 71.0711 67.25 69 67.25V68.75ZM40 67.25C37.9289 67.25 36.25 68.9289 36.25 71H37.75C37.75 69.7574 38.7574 68.75 40 68.75V67.25ZM42.3801 57.75H50V56.25H42.3801V57.75ZM59 57.75H66.6199V56.25H59V57.75ZM69.8565 61.2942L69.2531 67.9321L70.7469 68.0679L71.3504 61.43L69.8565 61.2942ZM70 67.25H69V68.75H70V67.25ZM40 67.25H39V68.75H40V67.25ZM39.7469 67.9321L39.1435 61.2942L37.6496 61.43L38.2531 68.0679L39.7469 67.9321ZM66.6199 57.75C68.531 57.75 70.0295 59.391 69.8565 61.2942L71.3504 61.43C71.6032 58.6484 69.413 56.25 66.6199 56.25V57.75ZM42.3801 56.25C39.587 56.25 37.3968 58.6484 37.6496 61.43L39.1435 61.2942C38.9705 59.391 40.469 57.75 42.3801 57.75V56.25ZM45.75 40.5C45.75 35.6675 49.6675 31.75 54.5 31.75V30.25C48.8391 30.25 44.25 34.8391 44.25 40.5H45.75ZM60.8814 46.4867C60.2044 47.2081 59.6603 47.9433 59.2523 48.5625L60.5048 49.3878C60.8775 48.8223 61.3697 48.1583 61.9751 47.5133L60.8814 46.4867ZM58.25 52.2614V57H59.75V52.2614H58.25ZM50.75 57V52.2614H49.25V57H50.75ZM49.7477 48.5624C49.3397 47.9433 48.7956 47.2081 48.1186 46.4867L47.0249 47.5133C47.6303 48.1583 48.1225 48.8223 48.4952 49.3878L49.7477 48.5624ZM61.9751 47.5133C63.6953 45.6804 64.75 43.2126 64.75 40.5H63.25C63.25 42.8163 62.351 44.9209 60.8814 46.4867L61.9751 47.5133ZM44.25 40.5C44.25 43.2126 45.3047 45.6804 47.0249 47.5133L48.1186 46.4867C46.649 44.9209 45.75 42.8163 45.75 40.5H44.25ZM50.75 52.2614C50.75 51.0045 50.4907 49.6899 49.7477 48.5624L48.4952 49.3878C49.0292 50.1982 49.25 51.1976 49.25 52.2614H50.75ZM59.2523 48.5625C58.5093 49.6899 58.25 51.0045 58.25 52.2614H59.75C59.75 51.1976 59.9708 50.1982 60.5048 49.3878L59.2523 48.5625ZM55 57.75H59V56.25H55V57.75ZM59.3558 31.4711C58.0589 30.7722 56.5941 30.3446 55.0388 30.2639L54.9612 31.7619C56.2895 31.8308 57.5383 32.1956 58.6442 32.7916L59.3558 31.4711ZM55.5 36.75C56.6777 36.75 57.7283 37.292 58.417 38.1431L59.583 37.1996C58.6218 36.0116 57.1496 35.25 55.5 35.25V36.75ZM58.417 38.1431C58.9383 38.7873 59.25 39.6063 59.25 40.5H60.75C60.75 39.2505 60.3125 38.1011 59.583 37.1996L58.417 38.1431ZM58.25 3V32.1313H59.75V3H58.25ZM50 57.75H55V56.25H50V57.75ZM54.5 31.75C54.6548 31.75 54.8085 31.754 54.9612 31.7619L55.0388 30.2639C54.8603 30.2547 54.6807 30.25 54.5 30.25V31.75ZM58.6442 32.7916C61.388 34.27 63.25 37.1681 63.25 40.5H64.75C64.75 36.5947 62.5657 33.2007 59.3558 31.4711L58.6442 32.7916ZM54.25 20V31.0129H55.75V20H54.25ZM55 68.75H69V67.25H55V68.75ZM40 68.75H55V67.25H40V68.75ZM36.25 71C36.25 71.437 36.3251 71.858 36.4636 72.2499L37.8778 71.7501C37.7953 71.5164 37.75 71.2643 37.75 71H36.25ZM40 73.25C39.0215 73.25 38.1871 72.625 37.8778 71.7501L36.4636 72.2499C36.978 73.7054 38.3661 74.75 40 74.75V73.25ZM37.1707 71.25H4V72.75H37.1707V71.25ZM0.25 69C0.25 71.0711 1.92894 72.75 4 72.75V71.25C2.75736 71.25 1.75 70.2426 1.75 69H0.25ZM42.25 18C42.25 19.5188 43.4812 20.75 45 20.75V19.25C44.3096 19.25 43.75 18.6904 43.75 18H42.25ZM1.75 10C1.75 8.75736 2.75736 7.75 4 7.75V6.25C1.92893 6.25 0.25 7.92893 0.25 10H1.75Z" fill="black"/>
</svg>
